<svg width="26" height="51" viewBox="0 0 26 51" fill="none" xmlns="http://www.w3.org/2000/svg">
<path fill-rule="evenodd" clip-rule="evenodd" d="M6.62535 1.89036L6.64477 3.77974H4.54969C3.39736 3.77974 2.28703 3.75635 2.08229 3.72778C1.87749 3.69917 1.32525 3.66093 0.854958 3.64282L0 3.60986L0.0374987 3.79208C0.0581396 3.89227 0.0886837 4.06715 0.105319 4.18068C0.123623 4.30499 0.172138 4.39829 0.227384 4.41519C0.27779 4.43058 0.744688 4.4153 1.26488 4.38123C1.78508 4.34711 3.20981 4.30982 4.43096 4.29832L6.65123 4.27737L6.61222 5.86356C6.57645 7.31983 6.58124 7.46332 6.67114 7.61525C6.72494 7.70632 6.81162 7.78079 6.86364 7.78079C6.91572 7.78079 6.96874 7.81202 6.98148 7.85025C7.01297 7.9445 8.92718 7.93827 8.95867 7.84386C8.97024 7.80918 9.06527 7.78079 9.16981 7.78079C9.27441 7.78079 9.35992 7.75851 9.35992 7.73122C9.35992 7.70399 9.41622 7.66743 9.4851 7.64992C9.7112 7.59257 9.95895 7.30978 10.0493 7.00598C10.1225 6.75974 10.1274 6.55002 10.083 5.5821C10.0544 4.95772 10.0454 4.40935 10.063 4.36339C10.0909 4.29082 10.4156 4.27987 12.5371 4.27987H14.9792V5.58499C14.9792 7.71327 15.0242 7.78079 16.4424 7.78079C16.8726 7.78079 17.3014 7.75717 17.3954 7.72827C17.4893 7.69938 17.7066 7.63564 17.8782 7.58668C18.1812 7.50016 18.5955 7.19875 18.5955 7.06477C18.5955 7.0307 18.6231 7.00281 18.6569 7.00281C18.7213 7.00281 18.6911 4.99106 18.6194 4.51605L18.5838 4.27987H22.2557C26.2929 4.27987 25.9951 4.30632 25.9951 3.94773C25.9951 3.78391 25.6361 3.38692 24.8885 2.72391C24.6989 2.55581 24.472 2.35404 24.3841 2.27546C24.2963 2.19694 24.1318 2.0594 24.0186 1.96982C23.9053 1.8803 23.7467 1.75021 23.666 1.68086C23.4794 1.52043 23.1539 1.42074 22.9684 1.46725C22.8262 1.50287 22.3006 1.99933 22.0036 2.37843C21.9192 2.48613 21.7995 2.62672 21.7375 2.69079C21.6756 2.75486 21.5504 2.90712 21.4594 3.02916C21.3683 3.15119 21.237 3.30912 21.1675 3.38008C21.0981 3.45104 21.0014 3.57002 20.9525 3.64443L20.8638 3.77974H19.7285H18.5932L18.6083 2.63655L18.6233 1.49337L18.9015 1.374C19.0545 1.30837 19.2282 1.21018 19.2875 1.15578C19.3469 1.10132 19.4111 1.05681 19.4303 1.05681C19.4494 1.05681 19.5217 0.956281 19.5909 0.833416C19.7032 0.633808 19.7088 0.592408 19.6432 0.444425C19.6028 0.353346 19.5384 0.278826 19.4999 0.278826C19.4615 0.278826 19.43 0.259154 19.43 0.235148C19.43 0.211142 19.236 0.148181 18.9989 0.0952781C18.6382 0.0148126 18.2744 -0.000802617 16.7734 3.09342e-05L14.9792 0.000975637V1.89036V3.77974H12.5371C10.3616 3.77974 10.0914 3.77013 10.0613 3.69183C10.0173 3.57724 10.0173 1.6483 10.0613 1.53371C10.0799 1.48536 10.1168 1.4458 10.1433 1.4458C10.215 1.4458 10.8253 1.15311 10.8922 1.08659C11.0295 0.950057 11.1403 0.744948 11.1403 0.627139C11.1403 0.457817 10.8752 0.190859 10.6674 0.151015C10.5756 0.133399 10.3878 0.0934998 10.2501 0.0623806C10.1114 0.0310391 9.24303 0.00475442 8.30284 0.00336516L6.60594 0.000975637L6.62535 1.89036ZM10.7145 8.28625C10.7338 8.72648 10.766 9.63055 10.7859 10.2953L10.8221 11.504H6.49928C3.96634 11.504 2.07995 11.4821 1.94325 11.4511C1.81496 11.4221 1.40548 11.3882 1.03333 11.376C0.429287 11.3559 0.360521 11.3631 0.392567 11.4427C0.412318 11.4916 0.466452 11.6818 0.512852 11.8652C0.592579 12.1802 0.606043 12.198 0.75626 12.1873C2.69846 12.0495 4.33048 12.0041 7.34295 12.0041C10.3883 12.0041 10.7424 12.0132 10.7727 12.092C10.7913 12.1404 10.8065 13.0906 10.8065 14.2037V16.2274H9.40003C8.05742 16.2274 7.98994 16.2224 7.91338 16.1163C7.86926 16.0552 7.802 16.0052 7.76389 16.0052C7.69918 16.0052 7.39714 15.8873 7.17699 15.7761C7.12385 15.7493 7.03144 15.7273 6.97163 15.7273C6.91182 15.7273 6.84912 15.7051 6.83227 15.6779C6.81546 15.6507 6.7201 15.6161 6.62035 15.601C6.33516 15.5578 5.44782 15.3336 5.341 15.2777C5.28787 15.2499 5.17042 15.2272 5.08001 15.2272C4.9896 15.2272 4.90014 15.2022 4.88122 15.1716C4.86231 15.141 4.76216 15.116 4.65868 15.116C4.5552 15.116 4.45505 15.091 4.43613 15.0605C4.41722 15.0299 4.35941 15.0049 4.30767 15.0049C4.22021 15.0048 4.21498 15.2195 4.23317 18.0474C4.24514 19.9072 4.2275 21.565 4.18783 22.3124C4.15211 22.9848 4.11829 23.885 4.11261 24.3129C4.09631 25.5455 4.16213 25.6188 5.28636 25.6188C5.97914 25.6188 6.75298 25.5075 6.88134 25.3896C6.91043 25.3628 6.9659 25.3409 7.00463 25.3409C7.11623 25.3409 7.52393 24.9392 7.52393 24.8292C7.52393 24.7745 7.54897 24.7297 7.57957 24.7297C7.61367 24.7297 7.6352 24.4611 7.6352 24.035V23.3404H12.865H18.0948V24.0005C18.0948 24.7019 18.1557 24.9531 18.3696 25.1325C18.4334 25.1861 18.5463 25.2298 18.6206 25.2298C18.695 25.2298 18.7713 25.2548 18.7902 25.2854C18.8354 25.3584 19.969 25.3584 20.0142 25.2854C20.0331 25.2548 20.1517 25.2298 20.2778 25.2298C20.4039 25.2298 20.5964 25.202 20.7057 25.1681C20.998 25.0773 21.5423 24.8195 21.5433 24.7713C21.5438 24.7484 21.5756 24.7297 21.6141 24.7297C21.6525 24.7297 21.7411 24.6052 21.8109 24.4531C21.9375 24.1777 21.9377 24.1717 21.8822 22.8277C21.8516 22.0858 21.8092 20.723 21.7881 19.7992L21.7497 18.1197L21.9347 17.9654C22.4311 17.5517 22.7126 17.2285 22.7126 17.0722C22.7126 16.92 22.4284 16.5192 22.2013 16.3511C22.1487 16.3121 21.9856 16.1699 21.8388 16.0349C21.4329 15.6618 21.3796 15.6162 21.3495 15.6162C21.3342 15.6162 21.2761 15.5724 21.2203 15.5189C21.0883 15.3922 20.7192 15.1026 20.6054 15.0364C20.5564 15.0079 20.4677 14.9394 20.4084 14.8842C20.3491 14.829 20.2549 14.7694 20.1991 14.7517C20.1433 14.7341 20.0977 14.6963 20.0977 14.6678C20.0977 14.6392 20.0476 14.6159 19.9864 14.6159C19.9252 14.6159 19.8751 14.5909 19.8751 14.5603C19.8751 14.4844 19.3958 14.4899 19.2455 14.5676C19.1126 14.6364 18.4724 15.2828 18.1894 15.6341C18.0914 15.7556 17.932 15.9389 17.8351 16.0412L17.659 16.2274H16.0124H14.3658L14.3804 14.1297L14.395 12.0319L19.8575 12.0177C25.2809 12.0037 25.3204 12.0028 25.3558 11.8915C25.4492 11.5973 25.2789 11.3654 24.377 10.5593C24.1889 10.3912 23.919 10.1445 23.7771 10.0111C23.6353 9.87767 23.4323 9.70262 23.3261 9.6221C23.2198 9.54158 23.0456 9.39438 22.9389 9.29507C22.8323 9.19577 22.7127 9.11447 22.6732 9.11447C22.6336 9.11447 22.6013 9.08946 22.6013 9.0589C22.6013 9.02834 22.5014 9.00333 22.3793 9.00333C22.1623 9.00333 22.0172 9.08196 21.8283 9.30196C21.7791 9.35926 21.6256 9.5218 21.4871 9.66317C21.3486 9.8046 21.1611 10.0203 21.0705 10.1425C20.9798 10.2648 20.8675 10.4023 20.8209 10.4482C20.7744 10.494 20.662 10.6315 20.5713 10.7538C20.4806 10.876 20.3557 11.0278 20.2938 11.0911C20.2318 11.1543 20.1314 11.2731 20.0706 11.3551L19.96 11.504H17.1636H14.3672V10.5276C14.3672 9.51296 14.3934 9.39232 14.6136 9.39232C14.6616 9.39232 14.701 9.37343 14.701 9.35031C14.701 9.32719 14.7823 9.27251 14.8818 9.22883C15.5327 8.94265 15.5208 8.34533 14.8608 8.16883C14.727 8.13305 14.5741 8.08115 14.5209 8.05342C14.4678 8.02574 14.3378 8.00307 14.2321 8.00307C14.1264 8.00307 14.0244 7.97806 14.0055 7.9475C13.9866 7.91694 13.8391 7.89193 13.6777 7.89193C13.5163 7.89193 13.3656 7.87315 13.3428 7.85025C13.3048 7.81196 12.896 7.76106 11.4741 7.61758C11.1834 7.58824 10.8857 7.54662 10.8125 7.52506L10.6794 7.48582L10.7145 8.28625ZM18.0948 19.778C18.0948 22.4576 18.0855 22.7764 18.0068 22.8066C17.9583 22.8251 15.635 22.8403 12.8437 22.8403C8.97069 22.8403 7.75293 22.8245 7.70197 22.7736C7.65184 22.7235 7.6352 22.0182 7.6352 19.9414V17.1759L7.81563 16.9795L7.99606 16.7831H13.0454H18.0948V19.778ZM19.4414 32.6373C19.1435 32.9127 18.3422 33.729 18.0732 34.031L17.7457 34.3989H12.814C7.94615 34.3989 7.88128 34.3974 7.80211 34.2877C7.75799 34.2266 7.68989 34.1766 7.65073 34.1766C7.61161 34.1766 7.57957 34.1516 7.57957 34.121C7.57957 34.0904 7.5295 34.0654 7.4683 34.0654C7.4071 34.0654 7.35702 34.0465 7.35702 34.0235C7.35702 33.9777 7.03083 33.8527 6.78675 33.8049C6.70258 33.7885 6.63376 33.7528 6.63376 33.7257C6.63376 33.6986 6.57267 33.6765 6.49795 33.6765C6.42323 33.6765 6.34667 33.6514 6.32776 33.6209C6.30884 33.5903 6.22394 33.5653 6.13904 33.5653C6.05414 33.5653 5.96629 33.547 5.94381 33.5245C5.89886 33.4796 5.3899 33.3535 5.06171 33.306C4.94676 33.2894 4.83888 33.2533 4.82197 33.226C4.80506 33.1987 4.70653 33.1763 4.60304 33.1763C4.49956 33.1763 4.40103 33.154 4.38412 33.1266C4.3672 33.0993 4.25932 33.0638 4.14438 33.0477C4.02944 33.0317 3.86286 33.0004 3.77423 32.9783L3.61306 32.938L3.65968 33.46C3.7176 34.1091 3.71659 46.4774 3.6584 48.8054C3.62708 50.058 3.63236 50.5142 3.67821 50.5142C3.71259 50.5142 3.74068 50.55 3.74068 50.5938C3.74068 50.7021 4.00418 50.8791 4.24141 50.9303C4.57767 51.0028 5.74358 51.0274 5.74358 50.962C5.74358 50.9285 5.86331 50.9032 6.02254 50.9032C6.17593 50.9032 6.34495 50.8803 6.39808 50.8522C6.45121 50.8242 6.57111 50.7732 6.66452 50.7389C6.90509 50.6505 7.24575 50.3104 7.24575 50.1586C7.24575 50.1133 7.27079 50.0607 7.30139 50.0418C7.33538 50.0208 7.35702 49.5894 7.35702 48.9331C7.35702 48.0046 7.36899 47.8542 7.44504 47.825C7.49344 47.8064 9.90838 47.7913 12.8116 47.7913H18.0902L18.1111 48.861C18.1225 49.4493 18.1525 50.0045 18.1776 50.0946C18.2362 50.3051 18.4103 50.4776 18.6472 50.56C19.0313 50.6938 21.2104 50.5971 21.2104 50.4463C21.2104 50.4226 21.273 50.4031 21.3495 50.4031C21.426 50.4031 21.4886 50.378 21.4886 50.3475C21.4886 50.3169 21.5281 50.2919 21.5763 50.2919C21.6245 50.2919 21.731 50.2223 21.8128 50.1371C22.1332 49.8036 22.1265 49.8518 22.1098 47.9858C22.1014 47.0383 22.071 45.988 22.0423 45.6518C22.0137 45.3156 21.99 43.0267 21.9898 40.5653L21.9893 36.0899L22.1423 35.9982C22.2264 35.9478 22.4268 35.7804 22.5874 35.6263C22.8642 35.3607 22.8795 35.3314 22.8795 35.065C22.8795 34.7914 22.8694 34.774 22.4919 34.397C22.2788 34.184 22.0846 34.0099 22.0604 34.0099C22.0363 34.0099 21.9102 33.9098 21.7803 33.7876C21.6503 33.6653 21.5305 33.5653 21.5139 33.5653C21.48 33.5653 21.3786 33.4846 21.1824 33.3014C21.1088 33.2326 21.0223 33.1763 20.9903 33.1763C20.9584 33.1763 20.9322 33.1513 20.9322 33.1208C20.9322 33.0902 20.9061 33.0652 20.8742 33.0652C20.8423 33.0652 20.7664 33.0188 20.7055 32.9621C20.6446 32.9054 20.4957 32.8116 20.3746 32.7537C20.2536 32.6958 20.1543 32.6297 20.1539 32.6067C20.1529 32.538 19.5193 32.5652 19.4414 32.6373ZM18.0948 41.1228V47.2911H12.7259H7.35702L7.35713 41.3312L7.35725 35.3713L7.60627 35.2046C7.74325 35.1129 7.85586 35.0192 7.85652 34.9962C7.85719 34.9733 10.1611 34.9546 12.9763 34.9546H18.0948V41.1228Z" fill="black"/>
</svg>
