<?xml version="1.0" ?><!DOCTYPE svg  PUBLIC '-//W3C//DTD SVG 1.0//EN'  'http://www.w3.org/TR/2001/REC-SVG-20010904/DTD/svg10.dtd'><svg enable-background="new 0 0 32 32" height="32px" id="Layer_1" version="1.0" viewBox="0 0 32 32" width="32px" xml:space="preserve" xmlns="http://www.w3.org/2000/svg" xmlns:xlink="http://www.w3.org/1999/xlink"><path d="M32,21.973v8.666c0,0.677-0.549,1.225-1.226,1.225H22.11c-0.678,0-1.226-0.548-1.226-1.225c0-0.678,0.548-1.226,1.226-1.226  h5.705l-9.89-9.891c-0.479-0.479-0.479-1.255,0-1.733c0.24-0.239,0.553-0.358,0.866-0.358c0.314,0,0.627,0.119,0.867,0.358  l9.89,9.892v-5.708c0-0.676,0.548-1.225,1.226-1.225C31.451,20.748,32,21.297,32,21.973z M4.186,2.588h5.705  c0.678,0,1.225-0.549,1.225-1.226s-0.547-1.226-1.225-1.226H1.226C0.549,0.137,0,0.686,0,1.362v8.665  c0,0.677,0.549,1.225,1.226,1.225c0.678,0,1.226-0.548,1.226-1.225V4.322l10.026,10.025c0.48,0.478,1.255,0.478,1.733,0  c0.479-0.479,0.479-1.253,0-1.732L4.186,2.588z"/></svg>